<?xml version="1.0" encoding="utf-8" standalone="no"?>
<!DOCTYPE svg PUBLIC "-//W3C//DTD SVG 1.1//EN"
  "http://www.w3.org/Graphics/SVG/1.1/DTD/svg11.dtd">
<svg xmlns:xlink="http://www.w3.org/1999/xlink" width="720pt" height="432pt" viewBox="0 0 720 432" xmlns="http://www.w3.org/2000/svg" version="1.1">
 <metadata>
  <rdf:RDF xmlns:dc="http://purl.org/dc/elements/1.1/" xmlns:cc="http://creativecommons.org/ns#" xmlns:rdf="http://www.w3.org/1999/02/22-rdf-syntax-ns#">
   <cc:Work>
    <dc:type rdf:resource="http://purl.org/dc/dcmitype/StillImage"/>
    <dc:date>2024-09-25T13:12:54.785319</dc:date>
    <dc:format>image/svg+xml</dc:format>
    <dc:creator>
     <cc:Agent>
      <dc:title>Matplotlib v3.9.0, https://matplotlib.org/</dc:title>
     </cc:Agent>
    </dc:creator>
   </cc:Work>
  </rdf:RDF>
 </metadata>
 <defs>
  <style type="text/css">*{stroke-linejoin: round; stroke-linecap: butt}</style>
 </defs>
 <g id="figure_1">
  <g id="patch_1">
   <path d="M 0 432 
L 720 432 
L 720 0 
L 0 0 
L 0 432 
z
" style="fill: none"/>
  </g>
  <g id="axes_1">
   <g id="line2d_1">
    <path d="M 115.363636 218.16 
L 125.529422 180.484146 
L 130.612316 162.393098 
L 135.695209 145.185052 
L 139.761523 132.238056 
L 143.827837 120.162174 
L 146.877573 111.75095 
L 149.927309 103.946788 
L 152.977045 96.79421 
L 156.026781 90.334023 
L 158.059938 86.430261 
L 160.093095 82.860596 
L 162.126253 79.634079 
L 164.15941 76.758894 
L 166.192567 74.242334 
L 168.225724 72.09078 
L 170.258881 70.30969 
L 172.292039 68.903581 
L 174.325196 67.876019 
L 176.358353 67.22961 
L 178.39151 66.965993 
L 180.424668 67.085838 
L 182.457825 67.58884 
L 184.490982 68.473723 
L 186.524139 69.738244 
L 188.557296 71.379194 
L 190.590454 73.392414 
L 192.623611 75.772795 
L 194.656768 78.514302 
L 196.689925 81.60998 
L 198.723083 85.05198 
L 200.75624 88.831571 
L 203.805976 95.112743 
L 206.855711 102.095898 
L 209.905447 109.741197 
L 212.955183 118.005024 
L 216.004919 126.840233 
L 220.071233 139.421777 
L 224.137548 152.801604 
L 229.220441 170.441658 
L 235.319913 192.581592 
L 256.668063 271.262672 
L 261.750956 288.62093 
L 265.817271 301.716892 
L 269.883585 313.965717 
L 272.933321 322.521339 
L 275.983057 330.48158 
L 279.032793 337.801029 
L 282.082529 344.437927 
L 285.132265 350.354412 
L 287.165422 353.881661 
L 289.198579 357.064691 
L 291.231736 359.895428 
L 293.264893 362.366693 
L 295.298051 364.472218 
L 297.331208 366.206663 
L 299.364365 367.565629 
L 301.397522 368.54567 
L 303.43068 369.1443 
L 305.463837 369.36 
L 307.496994 369.192224 
L 309.530151 368.641397 
L 311.563308 367.708917 
L 313.596466 366.397147 
L 315.629623 364.709416 
L 317.66278 362.650003 
L 319.695937 360.224132 
L 321.729095 357.437955 
L 323.762252 354.298538 
L 325.795409 350.813845 
L 327.828566 346.992712 
L 330.878302 340.651616 
L 333.928038 333.611707 
L 336.977774 325.913147 
L 340.02751 317.599858 
L 343.077245 308.719265 
L 347.14356 296.084001 
L 351.209874 282.658709 
L 356.292767 264.974125 
L 362.392239 242.799701 
L 383.74039 164.1671 
L 388.823283 146.858227 
L 392.889597 133.811403 
L 396.955912 121.619744 
L 400.005648 113.111918 
L 403.055383 105.20339 
L 406.105119 97.939278 
L 409.154855 91.361023 
L 412.204591 85.506155 
L 414.237748 82.021462 
L 416.270905 78.882045 
L 418.304063 76.095868 
L 420.33722 73.669997 
L 422.370377 71.610584 
L 424.403534 69.922853 
L 426.436692 68.611083 
L 428.469849 67.678603 
L 430.503006 67.127776 
L 432.536163 66.96 
L 434.56932 67.1757 
L 436.602478 67.77433 
L 438.635635 68.754371 
L 440.668792 70.113337 
L 442.701949 71.847782 
L 444.735107 73.953307 
L 446.768264 76.424572 
L 448.801421 79.255309 
L 450.834578 82.438339 
L 452.867735 85.965588 
L 454.900893 89.828112 
L 457.950629 96.228881 
L 461.000364 103.325265 
L 464.0501 111.076779 
L 467.099836 119.439202 
L 470.149572 128.364825 
L 474.215886 141.053309 
L 478.282201 154.523535 
L 483.365094 172.251947 
L 489.464565 194.459983 
L 509.796138 269.475936 
L 514.879031 286.930899 
L 518.945345 300.123579 
L 523.01166 312.485276 
L 526.061396 321.13547 
L 529.111131 329.19819 
L 532.160867 336.627439 
L 535.210603 343.380833 
L 538.260339 349.419844 
L 540.293496 353.031785 
L 542.326653 356.301661 
L 544.359811 359.221179 
L 546.392968 361.782935 
L 548.426125 363.980432 
L 550.459282 365.808097 
L 552.492439 367.261293 
L 554.525597 368.336336 
L 556.558754 369.030499 
L 558.591911 369.342021 
L 560.625068 369.270112 
L 562.658226 368.814955 
L 564.691383 367.977704 
L 566.72454 366.760482 
L 568.757697 365.166377 
L 570.790854 363.199432 
L 572.824012 360.864634 
L 574.857169 358.167907 
L 576.890326 355.116088 
L 578.923483 351.716919 
L 580.956641 347.979021 
L 584.006376 341.758021 
L 587.056112 334.831897 
L 590.105848 327.240161 
L 593.155584 319.026125 
L 596.20532 310.236648 
L 600.271634 297.709323 
L 604.337949 284.375492 
L 609.420842 266.780667 
L 615.520313 244.676101 
L 622.636364 218.16 
L 622.636364 218.16 
" clip-path="url(#p1072155869)" style="fill: none; stroke: #0000ff; stroke-width: 10; stroke-linecap: square"/>
   </g>
  </g>
 </g>
 <defs>
  <clipPath id="p1072155869">
   <rect x="90" y="51.84" width="558" height="332.64"/>
  </clipPath>
 </defs>
</svg>
