<?xml version="1.0" encoding="utf-8" standalone="no"?>
<!DOCTYPE svg PUBLIC "-//W3C//DTD SVG 1.1//EN"
  "http://www.w3.org/Graphics/SVG/1.1/DTD/svg11.dtd">
<svg xmlns:xlink="http://www.w3.org/1999/xlink" width="720pt" height="432pt" viewBox="0 0 720 432" xmlns="http://www.w3.org/2000/svg" version="1.1">
 <metadata>
  <rdf:RDF xmlns:dc="http://purl.org/dc/elements/1.1/" xmlns:cc="http://creativecommons.org/ns#" xmlns:rdf="http://www.w3.org/1999/02/22-rdf-syntax-ns#">
   <cc:Work>
    <dc:type rdf:resource="http://purl.org/dc/dcmitype/StillImage"/>
    <dc:date>2024-09-25T13:12:54.795452</dc:date>
    <dc:format>image/svg+xml</dc:format>
    <dc:creator>
     <cc:Agent>
      <dc:title>Matplotlib v3.9.0, https://matplotlib.org/</dc:title>
     </cc:Agent>
    </dc:creator>
   </cc:Work>
  </rdf:RDF>
 </metadata>
 <defs>
  <style type="text/css">*{stroke-linejoin: round; stroke-linecap: butt}</style>
 </defs>
 <g id="figure_1">
  <g id="patch_1">
   <path d="M 0 432 
L 720 432 
L 720 0 
L 0 0 
L 0 432 
z
" style="fill: none"/>
  </g>
  <g id="axes_1">
   <g id="line2d_1">
    <path d="M 115.363636 192.941476 
L 116.380215 211.858095 
L 117.396794 233.755824 
L 118.413372 190.718031 
L 119.429951 178.487018 
L 120.446529 220.006593 
L 121.463108 197.026173 
L 122.479687 128.599797 
L 123.496265 188.214504 
L 124.512844 168.702262 
L 125.529422 212.20642 
L 126.546001 261.93205 
L 127.56258 181.199009 
L 128.579158 185.719974 
L 129.595737 204.671172 
L 130.612316 233.734399 
L 131.628894 126.730516 
L 132.645473 214.539849 
L 133.662051 267.9292 
L 134.67863 219.800668 
L 135.695209 160.431226 
L 136.711787 216.130037 
L 137.728366 164.975291 
L 138.744944 131.120451 
L 139.761523 234.809312 
L 140.778102 168.857148 
L 141.79468 133.615735 
L 142.811259 166.777829 
L 143.827837 226.022057 
L 144.844416 247.91798 
L 145.860995 150.050931 
L 146.877573 217.296066 
L 147.894152 237.059494 
L 148.910731 174.298298 
L 149.927309 138.818905 
L 150.943888 156.392767 
L 151.960466 239.253537 
L 152.977045 195.2522 
L 153.993624 158.375838 
L 155.010202 187.302057 
L 156.026781 153.223868 
L 157.043359 195.936055 
L 158.059938 175.85955 
L 159.076517 140.462936 
L 160.093095 187.395477 
L 161.109674 198.116721 
L 162.126253 181.883124 
L 163.142831 233.931344 
L 164.15941 137.531584 
L 165.175988 95.642308 
L 166.192567 146.621893 
L 167.209146 188.265925 
L 168.225724 138.571121 
L 169.242303 137.807128 
L 170.258881 201.517382 
L 171.27546 238.715739 
L 172.292039 99.636564 
L 173.308617 169.807778 
L 174.325196 259.779999 
L 175.341774 180.511964 
L 176.358353 216.090782 
L 177.374932 189.798451 
L 178.39151 199.71564 
L 179.408089 240.192118 
L 180.424668 158.673958 
L 181.441246 169.860882 
L 182.457825 135.074085 
L 183.474403 180.93499 
L 184.490982 189.553092 
L 185.507561 145.975746 
L 186.524139 231.930902 
L 187.540718 131.033503 
L 188.557296 176.302711 
L 189.573875 118.7896 
L 190.590454 159.923998 
L 191.607032 142.843709 
L 192.623611 190.558424 
L 193.640189 163.216241 
L 194.656768 162.992232 
L 195.673347 90.262748 
L 196.689925 175.786183 
L 197.706504 224.890952 
L 198.723083 144.06039 
L 199.739661 165.76605 
L 200.75624 206.228083 
L 201.772818 189.798088 
L 202.789397 202.090137 
L 203.805976 218.002365 
L 204.822554 221.830479 
L 205.839133 196.206508 
L 206.855711 211.161001 
L 207.87229 185.337113 
L 208.888869 66.96 
L 209.905447 148.897223 
L 210.922026 274.668253 
L 211.938604 129.768499 
L 212.955183 106.226025 
L 213.971762 244.528144 
L 214.98834 182.126018 
L 216.004919 228.10434 
L 217.021498 125.348768 
L 218.038076 193.20773 
L 219.054655 233.613057 
L 220.071233 160.099215 
L 221.087812 315.026957 
L 222.104391 90.989126 
L 223.120969 235.035179 
L 224.137548 179.09365 
L 225.154126 214.583506 
L 226.170705 240.791073 
L 227.187284 175.280955 
L 228.203862 215.831784 
L 229.220441 234.31045 
L 230.237019 100.677919 
L 231.253598 265.43707 
L 232.270177 195.534186 
L 233.286755 170.762708 
L 234.303334 167.83324 
L 235.319913 163.975928 
L 236.336491 225.447923 
L 237.35307 188.993686 
L 238.369648 204.568289 
L 239.386227 227.686512 
L 240.402806 256.464746 
L 241.419384 163.618726 
L 242.435963 196.144593 
L 243.452541 280.162344 
L 244.46912 174.781681 
L 245.485699 246.273722 
L 246.502277 220.651378 
L 247.518856 153.124109 
L 248.535435 171.204511 
L 249.552013 246.400636 
L 250.568592 191.944642 
L 251.58517 186.437601 
L 252.601749 237.462841 
L 253.618328 199.721784 
L 254.634906 335.34376 
L 255.651485 243.021367 
L 256.668063 303.349452 
L 257.684642 217.858828 
L 258.701221 231.855083 
L 259.717799 234.98724 
L 260.734378 285.57903 
L 261.750956 180.609304 
L 262.767535 208.014395 
L 263.784114 312.271176 
L 264.800692 284.566253 
L 265.817271 265.755682 
L 266.83385 195.418553 
L 267.850428 232.612186 
L 268.867007 167.876659 
L 269.883585 210.245888 
L 270.900164 134.182658 
L 271.916743 289.251467 
L 272.933321 204.744153 
L 273.9499 226.569317 
L 274.966478 302.923813 
L 275.983057 249.410418 
L 276.999636 310.889767 
L 278.016214 226.061514 
L 279.032793 264.664552 
L 280.049371 261.433081 
L 281.06595 169.355878 
L 282.082529 279.414064 
L 283.099107 298.037254 
L 284.115686 215.082611 
L 285.132265 255.548065 
L 286.148843 329.555438 
L 287.165422 369.36 
L 288.182 216.56026 
L 289.198579 240.218757 
L 290.215158 294.446828 
L 291.231736 194.37724 
L 292.248315 358.143264 
L 293.264893 290.610808 
L 294.281472 287.850459 
L 295.298051 236.265617 
L 296.314629 226.552944 
L 297.331208 282.545215 
L 298.347786 257.197026 
L 299.364365 246.547354 
L 300.380944 184.229038 
L 301.397522 346.457415 
L 302.414101 185.812157 
L 303.43068 261.034206 
L 304.447258 276.917476 
L 305.463837 333.643024 
L 306.480415 224.297367 
L 307.496994 316.004826 
L 308.513573 302.413436 
L 309.530151 330.600893 
L 310.54673 313.204374 
L 311.563308 280.764104 
L 312.579887 293.645891 
L 313.596466 249.768232 
L 314.613044 269.4229 
L 315.629623 263.347875 
L 316.646201 284.613503 
L 317.66278 274.77164 
L 318.679359 225.469726 
L 319.695937 247.050093 
L 320.712516 336.577096 
L 321.729095 210.616019 
L 322.745673 243.000838 
L 323.762252 209.827911 
L 324.77883 235.147277 
L 325.795409 344.823078 
L 326.811988 254.430418 
L 327.828566 273.450823 
L 328.845145 234.489323 
L 329.861723 299.766965 
L 330.878302 311.057865 
L 331.894881 318.610039 
L 332.911459 255.363888 
L 333.928038 249.013988 
L 334.944617 260.911168 
L 335.961195 281.263955 
L 336.977774 292.788096 
L 337.994352 194.836705 
L 339.010931 242.265201 
L 340.02751 186.980526 
L 341.044088 162.49693 
L 342.060667 241.315695 
L 344.093824 226.872129 
L 345.110403 238.981805 
L 346.126981 216.904542 
L 347.14356 251.821527 
L 348.160138 268.719126 
L 349.176717 308.439875 
L 350.193296 187.202242 
L 351.209874 234.506537 
L 352.226453 232.587388 
L 353.243032 229.530102 
L 354.25961 285.244246 
L 355.276189 160.888598 
L 356.292767 235.648011 
L 357.309346 256.600737 
L 358.325925 210.48007 
L 359.342503 204.925883 
L 360.359082 270.028096 
L 361.37566 258.816542 
L 362.392239 252.955307 
L 364.425396 129.265129 
L 365.441975 171.390115 
L 366.458553 192.566058 
L 367.475132 169.364955 
L 368.491711 201.960079 
L 369.508289 166.167331 
L 371.541447 210.792278 
L 372.558025 151.544454 
L 373.574604 217.626563 
L 374.591182 223.957731 
L 375.607761 201.160069 
L 376.62434 254.551527 
L 377.640918 247.741489 
L 378.657497 164.311095 
L 379.674075 236.7695 
L 380.690654 244.215669 
L 381.707233 224.457597 
L 382.723811 113.259767 
L 383.74039 179.952746 
L 384.756968 154.868447 
L 385.773547 126.973091 
L 386.790126 249.479094 
L 387.806704 174.751051 
L 388.823283 200.192122 
L 389.839862 200.411877 
L 390.85644 192.591618 
L 391.873019 117.745368 
L 392.889597 258.878228 
L 393.906176 223.909308 
L 394.922755 136.69778 
L 395.939333 243.188477 
L 396.955912 102.362566 
L 397.97249 165.443004 
L 398.989069 149.182583 
L 400.005648 177.134945 
L 401.022226 194.312423 
L 402.038805 163.334501 
L 403.055383 157.113636 
L 404.071962 208.302966 
L 405.088541 156.17889 
L 407.121698 197.648488 
L 408.138277 149.786641 
L 409.154855 233.583726 
L 410.171434 95.781682 
L 411.188012 186.969977 
L 412.204591 118.881275 
L 413.22117 167.199233 
L 414.237748 168.942984 
L 415.254327 119.041794 
L 416.270905 238.528707 
L 417.287484 159.706978 
L 418.304063 199.929161 
L 419.320641 182.190552 
L 420.33722 158.625082 
L 421.353799 102.843972 
L 422.370377 99.15574 
L 423.386956 159.499259 
L 424.403534 192.93245 
L 425.420113 194.770376 
L 426.436692 153.295221 
L 427.45327 151.179047 
L 428.469849 95.414465 
L 429.486427 84.199015 
L 430.503006 270.444044 
L 431.519585 186.182585 
L 432.536163 247.615167 
L 433.552742 139.306756 
L 434.56932 178.651269 
L 435.585899 213.363993 
L 436.602478 178.843615 
L 437.619056 154.390501 
L 438.635635 178.682891 
L 439.652214 96.881306 
L 440.668792 205.1438 
L 441.685371 138.934759 
L 442.701949 216.055077 
L 443.718528 122.340624 
L 444.735107 114.84494 
L 445.751685 151.760473 
L 446.768264 207.366188 
L 447.784842 198.005506 
L 448.801421 230.369192 
L 449.818 210.891235 
L 450.834578 197.593627 
L 451.851157 186.467058 
L 452.867735 161.654595 
L 453.884314 194.941214 
L 454.900893 182.001041 
L 455.917471 249.42401 
L 456.93405 160.148565 
L 457.950629 196.921391 
L 459.983786 157.65125 
L 461.000364 107.490688 
L 462.016943 242.691658 
L 463.033522 250.812065 
L 464.0501 161.955633 
L 465.066679 211.990977 
L 466.083257 211.038602 
L 467.099836 229.257341 
L 468.116415 188.00097 
L 469.132993 225.017433 
L 470.149572 156.994496 
L 471.16615 152.018408 
L 472.182729 241.50793 
L 473.199308 134.88075 
L 474.215886 187.905862 
L 475.232465 124.672627 
L 476.249044 172.392241 
L 477.265622 127.382649 
L 478.282201 220.557203 
L 479.298779 180.437807 
L 480.315358 302.572289 
L 481.331937 311.666204 
L 482.348515 87.915181 
L 483.365094 249.876104 
L 484.381672 188.714103 
L 485.398251 200.103704 
L 486.41483 205.480886 
L 487.431408 142.723588 
L 488.447987 263.489441 
L 489.464565 122.671016 
L 490.481144 235.297118 
L 491.497723 268.755917 
L 492.514301 197.116135 
L 493.53088 265.981339 
L 494.547459 227.963683 
L 495.564037 205.84795 
L 496.580616 216.863293 
L 497.597194 289.828462 
L 498.613773 232.769774 
L 499.630352 260.3739 
L 500.64693 195.88784 
L 501.663509 205.608036 
L 502.680087 284.829009 
L 503.696666 261.60764 
L 504.713245 160.48971 
L 505.729823 235.645686 
L 506.746402 234.160105 
L 507.762981 239.860383 
L 508.779559 309.352649 
L 509.796138 212.116205 
L 510.812716 308.235475 
L 511.829295 259.244637 
L 512.845874 204.690018 
L 513.862452 240.802458 
L 514.879031 271.493957 
L 515.895609 125.231785 
L 516.912188 189.676504 
L 517.928767 218.674525 
L 518.945345 217.561898 
L 519.961924 268.323876 
L 520.978502 300.298223 
L 521.995081 283.020651 
L 523.01166 249.638169 
L 524.028238 245.49434 
L 525.044817 244.362553 
L 526.061396 241.891444 
L 527.077974 267.754071 
L 528.094553 191.078493 
L 529.111131 282.808903 
L 530.12771 306.714276 
L 531.144289 327.133563 
L 532.160867 254.68065 
L 533.177446 274.065331 
L 534.194024 241.064116 
L 535.210603 250.07624 
L 536.227182 180.665664 
L 537.24376 265.414603 
L 538.260339 227.521546 
L 539.276917 277.3447 
L 540.293496 307.155047 
L 541.310075 134.680285 
L 542.326653 277.5012 
L 543.343232 259.111152 
L 544.359811 215.866739 
L 545.376389 282.838496 
L 546.392968 255.885476 
L 547.409546 223.115131 
L 548.426125 282.149984 
L 549.442704 305.170803 
L 550.459282 248.254703 
L 551.475861 239.737279 
L 552.492439 250.894549 
L 553.509018 319.393489 
L 554.525597 151.934276 
L 555.542175 232.410992 
L 556.558754 247.713767 
L 557.575332 215.183988 
L 558.591911 256.793405 
L 559.60849 293.103806 
L 560.625068 277.406525 
L 561.641647 274.808587 
L 562.658226 288.355007 
L 563.674804 310.166007 
L 564.691383 217.884617 
L 565.707961 266.305533 
L 566.72454 230.290558 
L 567.741119 155.595634 
L 568.757697 239.51957 
L 569.774276 245.186992 
L 570.790854 338.193887 
L 571.807433 321.050518 
L 572.824012 295.74507 
L 573.84059 273.948144 
L 574.857169 319.087843 
L 575.873747 219.018906 
L 576.890326 187.321519 
L 577.906905 252.735128 
L 578.923483 159.243932 
L 579.940062 329.947004 
L 580.956641 316.025638 
L 581.973219 336.192476 
L 582.989798 203.028723 
L 584.006376 248.469972 
L 585.022955 338.408209 
L 586.039534 264.355984 
L 587.056112 271.388038 
L 588.072691 231.336992 
L 589.089269 220.856461 
L 590.105848 250.417084 
L 591.122427 274.989385 
L 592.139005 286.979327 
L 593.155584 151.693678 
L 594.172163 250.187271 
L 595.188741 291.802814 
L 596.20532 192.556297 
L 597.221898 216.007649 
L 599.255056 248.878217 
L 600.271634 343.780822 
L 601.288213 176.114468 
L 602.304791 196.844257 
L 603.32137 201.415775 
L 604.337949 175.512556 
L 605.354527 199.503346 
L 606.371106 177.157113 
L 607.387684 215.900897 
L 608.404263 298.395138 
L 609.420842 276.371496 
L 610.43742 247.294783 
L 611.453999 145.762646 
L 612.470578 189.128801 
L 614.503735 204.216218 
L 615.520313 227.457055 
L 616.536892 159.35321 
L 617.553471 173.29301 
L 618.570049 178.278792 
L 619.586628 236.80734 
L 620.603206 200.865882 
L 621.619785 308.59646 
L 622.636364 301.474795 
L 622.636364 301.474795 
" clip-path="url(#pb3cd5ff14c)" style="fill: none; stroke: #ff0000; stroke-opacity: 0.7; stroke-width: 10; stroke-linecap: square"/>
   </g>
  </g>
 </g>
 <defs>
  <clipPath id="pb3cd5ff14c">
   <rect x="90" y="51.84" width="558" height="332.64"/>
  </clipPath>
 </defs>
</svg>
